<mxfile host="app.diagrams.net" agent="Mozilla/5.0 (Windows NT 10.0; Win64; x64) AppleWebKit/537.36 (KHTML, like Gecko) Chrome/131.0.0.0 Safari/537.36" version="25.0.3">
  <diagram name="Page-1" id="2YBvvXClWsGukQMizWep">
    <mxGraphModel dx="1981" dy="629" grid="1" gridSize="10" guides="1" tooltips="1" connect="1" arrows="1" fold="1" page="1" pageScale="1" pageWidth="850" pageHeight="1100" math="0" shadow="0">
      <root>
        <mxCell id="0" />
        <mxCell id="1" parent="0" />
        <mxCell id="1ReHwP5EYVKr3tVqIY62-6" style="edgeStyle=orthogonalEdgeStyle;rounded=0;orthogonalLoop=1;jettySize=auto;html=1;" edge="1" parent="1" source="1ReHwP5EYVKr3tVqIY62-25" target="1ReHwP5EYVKr3tVqIY62-3">
          <mxGeometry relative="1" as="geometry" />
        </mxCell>
        <mxCell id="1ReHwP5EYVKr3tVqIY62-1" value="&lt;h5&gt;Pick and Provide Word to be Guessed&lt;/h5&gt;" style="shape=parallelogram;perimeter=parallelogramPerimeter;whiteSpace=wrap;html=1;fixedSize=1;" vertex="1" parent="1">
          <mxGeometry x="210" y="140" width="180" height="60" as="geometry" />
        </mxCell>
        <mxCell id="1ReHwP5EYVKr3tVqIY62-8" style="edgeStyle=orthogonalEdgeStyle;rounded=0;orthogonalLoop=1;jettySize=auto;html=1;" edge="1" parent="1" source="1ReHwP5EYVKr3tVqIY62-3" target="1ReHwP5EYVKr3tVqIY62-7">
          <mxGeometry relative="1" as="geometry" />
        </mxCell>
        <mxCell id="1ReHwP5EYVKr3tVqIY62-14" style="edgeStyle=orthogonalEdgeStyle;rounded=0;orthogonalLoop=1;jettySize=auto;html=1;" edge="1" parent="1" source="1ReHwP5EYVKr3tVqIY62-3" target="1ReHwP5EYVKr3tVqIY62-11">
          <mxGeometry relative="1" as="geometry" />
        </mxCell>
        <mxCell id="1ReHwP5EYVKr3tVqIY62-15" style="edgeStyle=orthogonalEdgeStyle;rounded=0;orthogonalLoop=1;jettySize=auto;html=1;" edge="1" parent="1" source="1ReHwP5EYVKr3tVqIY62-3" target="1ReHwP5EYVKr3tVqIY62-13">
          <mxGeometry relative="1" as="geometry" />
        </mxCell>
        <mxCell id="1ReHwP5EYVKr3tVqIY62-3" value="Function for checking guess against letters in word" style="shape=parallelogram;perimeter=parallelogramPerimeter;whiteSpace=wrap;html=1;fixedSize=1;" vertex="1" parent="1">
          <mxGeometry x="205" y="410" width="190" height="70" as="geometry" />
        </mxCell>
        <mxCell id="1ReHwP5EYVKr3tVqIY62-4" value="&lt;h5&gt;Take input on letters guessed&lt;/h5&gt;" style="shape=parallelogram;perimeter=parallelogramPerimeter;whiteSpace=wrap;html=1;fixedSize=1;" vertex="1" parent="1">
          <mxGeometry x="480" y="470" width="170" height="60" as="geometry" />
        </mxCell>
        <mxCell id="1ReHwP5EYVKr3tVqIY62-7" value="Track strikes, return how many strikes Hangman is at currently" style="shape=parallelogram;perimeter=parallelogramPerimeter;whiteSpace=wrap;html=1;fixedSize=1;" vertex="1" parent="1">
          <mxGeometry x="-10" y="465" width="190" height="60" as="geometry" />
        </mxCell>
        <mxCell id="1ReHwP5EYVKr3tVqIY62-9" style="edgeStyle=orthogonalEdgeStyle;rounded=0;orthogonalLoop=1;jettySize=auto;html=1;entryX=0.942;entryY=0.614;entryDx=0;entryDy=0;entryPerimeter=0;" edge="1" parent="1" source="1ReHwP5EYVKr3tVqIY62-4" target="1ReHwP5EYVKr3tVqIY62-3">
          <mxGeometry relative="1" as="geometry" />
        </mxCell>
        <mxCell id="1ReHwP5EYVKr3tVqIY62-17" style="edgeStyle=orthogonalEdgeStyle;rounded=0;orthogonalLoop=1;jettySize=auto;html=1;" edge="1" parent="1" source="1ReHwP5EYVKr3tVqIY62-11" target="1ReHwP5EYVKr3tVqIY62-16">
          <mxGeometry relative="1" as="geometry" />
        </mxCell>
        <mxCell id="1ReHwP5EYVKr3tVqIY62-11" value="Word guessed?&lt;span style=&quot;color: rgba(0, 0, 0, 0); font-family: monospace; font-size: 0px; text-align: start; text-wrap-mode: nowrap;&quot;&gt;%3CmxGraphModel%3E%3Croot%3E%3CmxCell%20id%3D%220%22%2F%3E%3CmxCell%20id%3D%221%22%20parent%3D%220%22%2F%3E%3CmxCell%20id%3D%222%22%20style%3D%22edgeStyle%3DorthogonalEdgeStyle%3Brounded%3D0%3BorthogonalLoop%3D1%3BjettySize%3Dauto%3Bhtml%3D1%3B%22%20edge%3D%221%22%20parent%3D%221%22%3E%3CmxGeometry%20relative%3D%221%22%20as%3D%22geometry%22%3E%3CmxPoint%20x%3D%22770%22%20y%3D%22180%22%20as%3D%22targetPoint%22%2F%3E%3CmxPoint%20x%3D%22700%22%20y%3D%22170%22%20as%3D%22sourcePoint%22%2F%3E%3C%2FmxGeometry%3E%3C%2FmxCell%3E%3C%2Froot%3E%3C%2FmxGraphModel%3E&lt;/span&gt;" style="ellipse;whiteSpace=wrap;html=1;" vertex="1" parent="1">
          <mxGeometry x="130" y="550" width="120" height="80" as="geometry" />
        </mxCell>
        <mxCell id="1ReHwP5EYVKr3tVqIY62-19" style="edgeStyle=orthogonalEdgeStyle;rounded=0;orthogonalLoop=1;jettySize=auto;html=1;" edge="1" parent="1" source="1ReHwP5EYVKr3tVqIY62-13" target="1ReHwP5EYVKr3tVqIY62-18">
          <mxGeometry relative="1" as="geometry" />
        </mxCell>
        <mxCell id="1ReHwP5EYVKr3tVqIY62-13" value="Strikes ran out?" style="ellipse;whiteSpace=wrap;html=1;" vertex="1" parent="1">
          <mxGeometry x="330" y="550" width="120" height="80" as="geometry" />
        </mxCell>
        <mxCell id="1ReHwP5EYVKr3tVqIY62-16" value="Return &quot;You Win&quot;" style="shape=parallelogram;perimeter=parallelogramPerimeter;whiteSpace=wrap;html=1;fixedSize=1;" vertex="1" parent="1">
          <mxGeometry x="130" y="660" width="120" height="60" as="geometry" />
        </mxCell>
        <mxCell id="1ReHwP5EYVKr3tVqIY62-18" value="Return &quot;You Lose&lt;span style=&quot;background-color: initial;&quot;&gt;&quot;&lt;/span&gt;" style="shape=parallelogram;perimeter=parallelogramPerimeter;whiteSpace=wrap;html=1;fixedSize=1;" vertex="1" parent="1">
          <mxGeometry x="330" y="660" width="120" height="60" as="geometry" />
        </mxCell>
        <mxCell id="1ReHwP5EYVKr3tVqIY62-21" style="edgeStyle=orthogonalEdgeStyle;rounded=0;orthogonalLoop=1;jettySize=auto;html=1;" edge="1" parent="1" source="1ReHwP5EYVKr3tVqIY62-20" target="1ReHwP5EYVKr3tVqIY62-1">
          <mxGeometry relative="1" as="geometry" />
        </mxCell>
        <mxCell id="1ReHwP5EYVKr3tVqIY62-20" value="START" style="rounded=1;whiteSpace=wrap;html=1;" vertex="1" parent="1">
          <mxGeometry x="240" y="30" width="120" height="60" as="geometry" />
        </mxCell>
        <mxCell id="1ReHwP5EYVKr3tVqIY62-23" value="" style="edgeStyle=orthogonalEdgeStyle;rounded=0;orthogonalLoop=1;jettySize=auto;html=1;" edge="1" parent="1" source="1ReHwP5EYVKr3tVqIY62-1" target="1ReHwP5EYVKr3tVqIY62-22">
          <mxGeometry relative="1" as="geometry">
            <mxPoint x="300" y="200" as="sourcePoint" />
            <mxPoint x="300" y="280" as="targetPoint" />
          </mxGeometry>
        </mxCell>
        <mxCell id="1ReHwP5EYVKr3tVqIY62-22" value="&lt;h4&gt;Generate blanks equal to letters in the word&lt;/h4&gt;" style="shape=parallelogram;perimeter=parallelogramPerimeter;whiteSpace=wrap;html=1;fixedSize=1;" vertex="1" parent="1">
          <mxGeometry x="210" y="250" width="180" height="60" as="geometry" />
        </mxCell>
        <mxCell id="1ReHwP5EYVKr3tVqIY62-27" value="" style="edgeStyle=orthogonalEdgeStyle;rounded=0;orthogonalLoop=1;jettySize=auto;html=1;" edge="1" parent="1" source="1ReHwP5EYVKr3tVqIY62-22" target="1ReHwP5EYVKr3tVqIY62-25">
          <mxGeometry relative="1" as="geometry">
            <mxPoint x="300" y="310" as="sourcePoint" />
            <mxPoint x="300" y="410" as="targetPoint" />
          </mxGeometry>
        </mxCell>
        <mxCell id="1ReHwP5EYVKr3tVqIY62-25" value="Ask user to guess a letter" style="rounded=1;whiteSpace=wrap;html=1;" vertex="1" parent="1">
          <mxGeometry x="240" y="330" width="120" height="60" as="geometry" />
        </mxCell>
      </root>
    </mxGraphModel>
  </diagram>
</mxfile>
